<svg width="15" height="20" viewBox="0 0 15 20" fill="none" xmlns="http://www.w3.org/2000/svg">
<path d="M7.5 0C3.36448 0 0 3.2493 0 7.24321C0 12.1998 6.71177 19.4763 6.99752 19.7837C7.26593 20.0724 7.73455 20.0719 8.00248 19.7837C8.28824 19.4763 15 12.1998 15 7.24321C14.9999 3.2493 11.6355 0 7.5 0ZM7.5 10.8875C5.41932 10.8875 3.7266 9.25267 3.7266 7.24321C3.7266 5.23376 5.41936 3.59899 7.5 3.59899C9.58064 3.59899 11.2734 5.2338 11.2734 7.24325C11.2734 9.25271 9.58064 10.8875 7.5 10.8875Z" fill="#BDBDBD"/>
</svg>
