<svg width="53" height="59" viewBox="0 0 53 59" fill="none" xmlns="http://www.w3.org/2000/svg">
<path d="M52.7688 7.38166C52.0804 4.64006 49.4988 0 44.1923 0C40.8153 0 38.4555 2.34763 38.4555 5.70968C38.4555 7.80894 40.1708 9.51613 42.28 9.51613C43.3643 9.51613 44.3396 9.06031 45.0356 8.33708C45.1484 8.77292 45.1331 9.2354 44.9543 9.66648C44.4906 10.7799 43.1673 11.4194 41.3239 11.4194C40.4835 11.4194 39.7444 11.6706 39.142 12.1293C38.5301 11.9551 37.8092 11.9684 37.1141 12.1055C36.6771 11.3946 35.8835 10.7037 34.8127 10.1328C32.2579 8.77102 28.2173 8.18577 24.54 10.6276C22.8505 11.7486 21.6573 13.2702 20.9708 15.105C19.9162 14.8195 17.5182 14.2742 14.5523 14.2742C10.8836 14.2742 7.53813 15.1506 6.22727 16.4562C5.57328 17.1071 5.29026 18.1501 5.4681 19.2473C5.63543 20.2694 6.36017 22.2049 9.34425 23.6895C10.3425 24.1852 10.4782 25.055 10.6475 26.6766C10.7622 27.7633 10.8961 29.0261 11.507 30.2432C8.39673 33.4216 5.61439 37.2071 5.94904 41.9328C5.95191 42.2507 5.97485 42.6541 6.00449 43.1366C6.08768 44.486 6.21006 46.5072 5.87637 48.5351C2.02317 48.576 1.06895 51.7763 0.229471 55.9577L0 57.0968H1.16648C1.69617 57.0968 6.40511 57.0359 8.53537 54.9147C9.60336 53.8518 9.89498 52.3834 9.31366 50.9884C8.97997 50.1871 8.40247 49.5286 7.7217 49.0928C7.80297 48.6417 7.86416 48.1935 7.90815 47.7519C9.70854 50.4536 12.3522 51.6041 14.5513 52.0713V56.1452C14.5513 57.7191 15.8383 59 17.4197 59H24.1126C25.6941 59 26.981 57.7191 26.981 56.1452V55.1688C27.5251 55.892 28.1685 56.5344 28.8933 57.0777V57.0968H28.9172C30.513 58.2863 32.4874 59 34.6301 59C39.9022 59 44.1913 54.7311 44.1913 49.4839C44.1913 45.9962 42.2906 42.9501 39.4729 41.2924C39.6096 39.4586 39.6488 34.4484 36.7163 30.3821C36.7508 29.7684 36.7154 29.1822 36.5939 28.6464C37.0328 28.3942 37.4248 28.1154 37.7499 27.8061C37.9507 27.8185 38.1505 27.8252 38.3475 27.8252C38.8848 27.8252 39.4031 27.7814 39.8658 27.7062C41.9072 27.377 43.4465 26.451 44.0919 25.1673C44.6943 23.9673 44.723 22.8996 44.1761 21.9918C44.0154 21.7253 43.8051 21.495 43.5766 21.279C47.2557 19.9211 49.4376 17.9417 50.7064 16.2155C53.0614 13.0114 53.2899 9.45523 52.7688 7.38166ZM7.54769 51.7164C7.74752 52.1969 7.846 52.9087 7.1834 53.5691C6.16704 54.5807 3.91535 54.9928 2.36068 55.1326C3.16957 51.6088 3.96316 50.6372 5.39544 50.4669C5.11912 51.2672 4.7424 52.0342 4.22609 52.7194L5.7559 53.8613C6.39173 53.0172 6.85258 52.0941 7.18818 51.1435C7.3316 51.3167 7.45972 51.5061 7.54769 51.7164ZM16.4646 56.1452V52.3406C16.8432 52.3682 17.1836 52.3777 17.4723 52.3777C18.0948 52.3777 18.4782 52.334 18.4954 52.332L18.2602 50.4431C17.9791 50.4783 11.2814 51.2101 8.73807 45.3034C8.2447 44.1577 7.96934 43.0767 7.86512 42.0499C7.86321 41.9918 7.85938 41.9224 7.85938 41.871H7.85174C7.51422 37.7629 9.96956 34.5559 12.6391 31.8086C13.579 32.7574 14.9931 33.6062 17.1577 34.2219C17.8901 34.4303 18.5786 34.534 19.2239 34.534C20.3512 34.534 21.3418 34.2171 22.1851 33.5834C23.2253 32.8021 23.9769 31.5517 24.4549 29.8749C25.5822 30.3603 27.0967 30.4868 28.3559 30.4868C28.6542 30.4868 28.9296 30.4783 29.1906 30.4678C29.357 31.1168 29.335 31.8667 29.249 32.5271C28.8292 32.4224 28.3942 32.3548 27.9381 32.3548V34.2581C31.1583 34.2581 33.3211 38.6764 33.7036 40.199C34.043 41.5522 34.5995 43.2061 35.1358 44.8048C35.5862 46.1447 36.0451 47.5121 36.3214 48.5551C35.6732 48.6046 35.0871 48.8653 34.631 49.2745C34.1223 48.8177 33.4559 48.5323 32.7188 48.5323C31.9758 48.5323 31.3037 48.8225 30.7941 49.285C30.7271 46.827 29.4583 45.0455 27.983 42.9967C27.6073 42.4743 27.2143 41.929 26.8213 41.3428L25.2303 42.3982C25.5153 42.8235 25.7983 43.2232 26.0765 43.6134C23.1001 43.1157 19.7871 41.3904 18.3089 37.7105L16.5334 38.4176C17.7697 41.4932 20.0567 43.4259 22.5197 44.5174C25.064 47.9499 25.0697 49.6161 25.0697 52.3387V53.2903C24.3325 53.2903 23.6661 53.5768 23.1575 54.0326C22.6488 53.5758 21.9824 53.2903 21.2452 53.2903C19.6638 53.2903 18.3768 54.5712 18.3768 56.1452V57.0968H17.4207C16.8929 57.0968 16.4646 56.6695 16.4646 56.1452ZM28.0079 53.2751C28.7097 53.2475 29.5081 53.158 30.382 52.922C30.7931 53.1495 31.2597 53.2903 31.7626 53.2903H35.5871C37.1686 53.2903 38.4555 52.0094 38.4546 50.4783C38.466 50.2366 38.4871 49.6437 38.446 49.3525C38.4307 49.2441 38.4077 49.1232 38.3848 49.0033C39.4346 48.0507 40.4003 46.9497 41.256 45.6955C41.6108 46.3074 41.8794 46.9726 42.0525 47.6758C38.4441 53.5092 33.4253 55.0261 29.5712 55.1774C28.9526 54.633 28.4238 53.9917 28.0079 53.2751ZM25.4082 45.4233C25.5889 45.4585 25.7677 45.489 25.9455 45.5156C25.8671 45.685 25.8117 45.863 25.7438 46.0362C25.6415 45.8373 25.5296 45.6327 25.4082 45.4233ZM29.0329 51.2672C28.3779 51.369 27.7784 51.3842 27.2334 51.3861C27.0747 50.7771 26.982 50.1414 26.982 49.4839C26.982 48.2963 27.265 47.1439 27.7899 46.0961C28.4582 47.1905 28.8942 48.2487 28.8942 49.4839V50.4355C28.8942 50.7267 28.9516 51.0026 29.0329 51.2672ZM31.7626 51.3871C31.7626 50.8628 32.191 50.4355 32.7188 50.4355C33.2465 50.4355 33.6749 50.8628 33.6749 51.3871H31.7626ZM35.5871 51.3871C35.5871 50.8628 36.0155 50.4355 36.5433 50.4355C36.5433 50.9598 36.1149 51.3871 35.5871 51.3871ZM37.8312 46.8983C37.574 46.0628 37.2671 45.1455 36.9487 44.2005C36.7058 43.4792 36.462 42.7484 36.2354 42.0423C37.6916 42.3534 38.9957 43.0757 40.0159 44.0844C39.3552 45.1255 38.6286 46.0733 37.8312 46.8983ZM22.2013 57.0968H20.2891V56.1452C20.2891 55.6208 20.7174 55.1935 21.2452 55.1935C21.773 55.1935 22.2013 55.6208 22.2013 56.1452V57.0968ZM25.0697 56.1452C25.0697 56.6695 24.6414 57.0968 24.1136 57.0968V56.1452C24.1136 55.6208 24.5419 55.1935 25.0697 55.1935V56.1452ZM34.631 57.0968C33.8422 57.0968 33.0802 56.9769 32.364 56.7551C35.4064 56.1556 39.0828 54.5921 42.1519 50.8361C41.5085 54.3904 38.3838 57.0968 34.631 57.0968ZM37.5941 40.4416C36.9668 40.237 36.3128 40.0924 35.6359 40.022C35.611 39.9297 35.5804 39.8269 35.5575 39.7374C35.3988 39.1056 35.0747 38.2663 34.6071 37.3822C34.8863 36.8093 35.6636 35.1374 36.1972 33.2465C37.4774 35.9443 37.6352 38.8239 37.5941 40.4416ZM33.3747 35.4704C32.7293 34.6406 31.9558 33.8774 31.0627 33.3122C31.2119 32.4909 31.3171 31.3747 31.1086 30.2994C32.3382 30.1357 33.6299 29.8559 34.7993 29.4477C34.9886 31.1453 34.1023 33.7518 33.3747 35.4704ZM42.1022 22.5218C41.1107 23.1623 39.5101 23.4677 38.097 23.2412C37.5262 23.1489 37.0615 22.9672 36.7574 22.7426C38.4364 22.5865 39.9394 22.3267 41.2809 21.987C41.5677 22.1421 41.8565 22.3239 42.1022 22.5218ZM49.1623 15.0916C46.6438 18.5174 41.9291 20.5387 35.5269 20.9374L34.9896 20.984L34.7371 21.4494C34.7075 21.5055 33.9608 22.8387 31.7626 22.8387V24.7419C33.2685 24.7419 34.3403 24.289 35.0785 23.7751C35.6483 24.4526 36.5834 24.9246 37.7901 25.1197C38.1773 25.1825 38.6018 25.2158 39.0445 25.2158C40.0609 25.2158 41.1719 25.035 42.1644 24.6287C41.6834 25.1911 40.733 25.6384 39.5589 25.8277C37.8465 26.1056 36.0556 25.7659 35.307 25.0208L33.955 26.3663C34.3174 26.727 34.7553 27.002 35.2305 27.218C33.9885 27.8214 32.1738 28.2972 30.1745 28.4941C27.4639 28.7606 25.4617 28.4075 24.8651 27.9279C24.998 26.9659 25.0697 25.9077 25.0697 24.7419H23.1575C23.1575 29.4762 22.0025 31.3366 21.0329 32.0636C20.2021 32.6898 19.1035 32.7954 17.6827 32.391C13.033 31.0683 12.7978 28.8386 12.5492 26.4786C12.3761 24.8352 12.1801 22.9729 10.199 21.987C8.57648 21.1791 7.54004 20.0695 7.3555 18.9419C7.26658 18.3966 7.40331 17.976 7.57828 17.8018C8.21028 17.1738 10.6618 16.1774 14.5523 16.1774C17.2926 16.1774 19.5375 16.6922 20.4736 16.9444C20.4268 17.2137 20.3789 17.483 20.3512 17.7619C18.481 17.2851 14.7177 16.7056 10.4256 18.1292L11.0309 19.9344C16.3412 18.171 20.8465 19.8982 20.8905 19.9154L22.2013 20.4378V19.0323C22.2013 16.0023 23.3449 13.707 25.6004 12.2111C29.2098 9.81589 32.7159 11.2195 33.7064 11.7058C34.4857 12.0902 34.9733 12.4937 35.2582 12.8087C34.2476 13.4168 33.6749 14.2675 33.6749 15.2258H35.5871C35.5871 14.8756 36.0384 14.5254 36.4591 14.3142C36.9534 14.0677 37.4621 13.9525 37.8771 13.9154C37.4784 14.9993 37.4927 16.0518 37.4994 16.2155L39.4097 16.1384C39.3935 15.7359 39.491 14.4379 40.1335 13.7727C40.4271 13.4701 40.8162 13.3226 41.3239 13.3226C43.9399 13.3226 45.9583 12.2282 46.7213 10.3935C47.3055 8.99084 47.033 7.4026 46.0501 6.24829C46.0759 6.07129 46.1046 5.89429 46.1046 5.70968V4.75806H44.1923V5.70968C44.1923 6.75931 43.3347 7.6129 42.28 7.6129C41.2254 7.6129 40.3678 6.75931 40.3678 5.70968C40.3678 3.39726 41.8689 1.90323 44.1923 1.90323C49.2741 1.90323 50.7609 7.23606 50.9139 7.84415C51.3671 9.64935 51.0019 12.5908 49.1623 15.0916Z" fill="#CF0000"/>
</svg>
