<svg width="70" height="43" viewBox="0 0 70 43" fill="none" xmlns="http://www.w3.org/2000/svg">
<path d="M69.9677 30.4009L69.1451 23.5244C69.0566 22.7852 68.3905 22.2533 67.6486 22.3289C64.9295 22.6065 62.4533 20.6284 62.1294 17.92C61.8054 15.2117 63.7453 12.7079 66.4535 12.3388C67.1928 12.238 67.7145 11.5646 67.626 10.8254L66.8035 3.94891C66.6613 2.76092 66.0641 1.69927 65.1219 0.959433C64.1795 0.219737 63.0049 -0.109456 61.8145 0.0321533L13.793 5.75177C12.6145 5.89215 11.5605 6.47809 10.8202 7.40196H4.48875C2.01359 7.40224 0 9.4115 0 11.8812V18.8065C0 19.551 0.598145 20.158 1.34395 20.1707C4.07709 20.2169 6.30068 22.4736 6.30068 25.2012C6.30068 27.9287 4.07709 30.1855 1.34395 30.2319C0.598145 30.2443 0 30.8514 0 31.5957V38.521C0 40.9907 2.01359 43 4.48875 43H43.0068H52.8511C55.3262 43 57.3398 40.9907 57.3398 38.5209V36.4157L66.0427 35.3792C67.2332 35.2374 68.2972 34.6415 69.0386 33.7011C69.7797 32.7608 70.1098 31.5887 69.9677 30.4009ZM54.6055 33.9935V36.7414V38.5209C54.6055 39.4861 53.8185 40.2715 52.8511 40.2715H44.374V37.9601V37.7137C44.374 36.9602 43.7619 36.3494 43.0068 36.3494C42.2517 36.3494 41.6396 36.9602 41.6396 37.7137V38.2857V40.2714H24.9679H14.8497H4.48875C3.52147 40.2714 2.73438 39.4861 2.73438 38.5208V32.8215C4.27041 32.528 5.68121 31.7785 6.80025 30.6444C8.24141 29.184 9.03506 27.2508 9.03506 25.201C9.03506 23.1513 8.24141 21.2181 6.80025 19.7577C5.68107 18.6236 4.27041 17.8741 2.73438 17.5806V11.8812C2.73438 10.916 3.52133 10.1306 4.48875 10.1306H9.83719H12.5738H41.6397V26.7432C41.6397 27.4967 42.2518 28.1074 43.0069 28.1074C43.762 28.1074 44.3741 27.4967 44.3741 26.7432V10.1307H52.8512C53.8185 10.1307 54.6056 10.916 54.6056 11.8813V17.5808C53.0696 17.8742 51.6588 18.6237 50.5396 19.7578C49.0984 21.2183 48.3049 23.1514 48.3049 25.2012C48.3049 27.251 49.0986 29.1841 50.5396 30.6445C51.6588 31.7786 53.0696 32.5282 54.6056 32.8216V33.9935H54.6055ZM66.8895 32.0142C66.5998 32.3816 66.1839 32.6147 65.7187 32.67L57.3398 33.668V31.5957C57.3398 30.8512 56.7417 30.2443 55.9959 30.2316C53.2628 30.1853 51.0392 27.9286 51.0392 25.2009C51.0392 22.4732 53.2628 20.2166 55.9959 20.1704C56.7418 20.1577 57.3398 19.5507 57.3398 18.8063V11.8809C57.3398 9.41109 55.3262 7.40183 52.8511 7.40183H43.0068H23.0092L62.1385 2.74155C62.6035 2.68603 63.0629 2.81481 63.4312 3.1039C63.7995 3.39298 64.0329 3.80798 64.0884 4.27224L64.7654 9.93155C63.2751 10.4047 61.9633 11.3157 60.9867 12.5741C59.7293 14.1947 59.1708 16.2081 59.4143 18.2434C59.6578 20.2787 60.6755 22.1045 62.2798 23.3841C63.5257 24.378 65.0155 24.9552 66.5756 25.065L67.2526 30.7243C67.3081 31.1886 67.1792 31.6467 66.8895 32.0142Z" fill="#CF0000"/>
<path d="M44.2692 31.7061C44.2351 31.6243 44.1927 31.5452 44.1435 31.4715C44.0942 31.3965 44.0368 31.3269 43.9739 31.2641C43.911 31.2014 43.8399 31.1441 43.7661 31.095C43.6909 31.0445 43.6116 31.0036 43.5296 30.9695C43.4476 30.9353 43.3614 30.9081 43.2739 30.8903C43.0976 30.8562 42.9157 30.8562 42.7394 30.8903C42.6519 30.9081 42.5671 30.9353 42.4837 30.9695C42.4017 31.0036 42.3224 31.0445 42.2485 31.095C42.1733 31.1441 42.1036 31.2014 42.0407 31.2641C41.9765 31.3269 41.9204 31.3965 41.8698 31.4715C41.8206 31.5452 41.7782 31.6243 41.744 31.7061C41.7099 31.7894 41.6839 31.8753 41.6661 31.9626C41.6483 32.0499 41.6401 32.14 41.6401 32.2287C41.6401 32.3173 41.6483 32.4074 41.6661 32.4947C41.6839 32.582 41.7099 32.6679 41.744 32.7498C41.7782 32.833 41.8206 32.9121 41.8698 32.9858C41.9204 33.0608 41.9765 33.1304 42.0407 33.1932C42.1036 33.2559 42.1733 33.3132 42.2485 33.3623C42.3224 33.4115 42.4017 33.4538 42.4837 33.4879C42.5671 33.522 42.6519 33.5492 42.7394 33.5656C42.8282 33.5834 42.9171 33.5929 43.0073 33.5929C43.0962 33.5929 43.1851 33.5834 43.2739 33.5656C43.3614 33.5492 43.4476 33.522 43.5296 33.4879C43.6116 33.4538 43.6909 33.4115 43.7661 33.3623C43.8399 33.3132 43.911 33.2559 43.9739 33.1932C44.0368 33.1304 44.0942 33.0608 44.1435 32.9858C44.1927 32.9121 44.2351 32.833 44.2692 32.7498C44.3034 32.6679 44.3294 32.582 44.3472 32.4947C44.3649 32.4074 44.3745 32.3173 44.3745 32.2287C44.3745 32.14 44.3649 32.0499 44.3472 31.9626C44.3294 31.8753 44.3034 31.7894 44.2692 31.7061Z" fill="#CF0000"/>
<path d="M33.0665 21.6734L27.0607 20.8026L24.3749 15.3722C24.1445 14.9066 23.6693 14.6118 23.149 14.6118C22.6286 14.6118 22.1532 14.9066 21.923 15.3722L19.5598 20.1503L19.2372 20.8026L16.9638 21.1322L13.2315 21.6734C12.7165 21.7481 12.2887 22.1081 12.1278 22.602C11.9669 23.0958 12.1011 23.638 12.4738 24.0004L16.0906 27.5184L16.8194 28.2274L16.406 30.633L15.7935 34.196C15.7054 34.7078 15.9163 35.2251 16.3374 35.5304C16.7583 35.8356 17.3165 35.876 17.7771 35.6342L23.149 32.8162L28.5206 35.6342C28.7207 35.7393 28.9391 35.791 29.1566 35.791C29.4401 35.791 29.7223 35.7031 29.9604 35.5304C30.3815 35.2252 30.5923 34.7079 30.5043 34.196L29.4783 28.2274L33.8242 24.0004C34.1969 23.638 34.331 23.0958 34.1703 22.602C34.0095 22.1081 33.5816 21.7482 33.0665 21.6734ZM27.0551 26.7742C26.7329 27.0876 26.5858 27.5392 26.6619 27.9817L27.341 31.9327L23.7851 30.0674C23.3868 29.8584 22.9111 29.8584 22.5127 30.0674L18.9567 31.9329L19.6358 27.9819C19.6708 27.7786 19.6566 27.574 19.6021 27.3812C19.5378 27.1542 19.4169 26.9438 19.2426 26.7744L17.558 25.1358L16.3659 23.9763L17.7402 23.7768L20.3416 23.3996C20.3826 23.3936 20.4225 23.3841 20.4624 23.3745C20.8556 23.2808 21.1902 23.0189 21.3711 22.6534L23.1491 19.0586L24.927 22.6534C25.1262 23.056 25.511 23.3351 25.9563 23.3996L29.932 23.9762L27.0551 26.7742Z" fill="#CF0000"/>
</svg>
