<svg width="55" height="54" viewBox="0 0 55 54" fill="none" xmlns="http://www.w3.org/2000/svg">
<path fill-rule="evenodd" clip-rule="evenodd" d="M54.8421 30.7158C54.7631 30.6036 46.9673 19.4221 46.1193 13.5635L46.0111 12.8107H44.3548V9.30527H42.5806V7.21776L48.9997 4.04706L40.8064 0V9.30527H39.0323V12.8107H37.4763L37.2927 13.4461C35.569 19.4054 30.5259 24.2035 27.5 24.2035C24.4741 24.2035 19.431 19.4054 17.7073 13.4461L17.5237 12.8107H15.9677V9.30527H14.1935V0L6.00032 4.04706L12.4194 7.21776V9.30527H10.6452V12.8107H8.98895L8.87984 13.5627C8.03266 19.4221 0.235968 30.6027 0.157016 30.7149L0 30.941V54H55V30.941L54.8421 30.7158ZM42.5806 2.83592L45.0326 4.04706L42.5806 5.2582V2.83592ZM9.96742 4.04706L12.4194 2.83592V5.2582L9.96742 4.04706ZM48.7903 24.4095V31.2144H41.6936V14.5635H44.5003C45.1204 17.4607 46.9505 21.1757 48.7903 24.4095ZM39.0323 36.4727H53.2258V52.2473H39.0323V36.4727ZM15.9677 52.2473H1.77419V36.4727H15.9677V52.2473ZM15.9677 34.7199H1.77419V32.9672H15.9677V34.7199ZM17.7419 40.6932C18.0205 40.7914 18.3168 40.8545 18.629 40.8545C18.9413 40.8545 19.2376 40.7914 19.5161 40.6932V52.2473H17.7419V40.6932ZM23.9516 40.1709C24.4235 40.5916 25.0419 40.8545 25.7258 40.8545C26.015 40.8545 26.2882 40.7975 26.5481 40.7125C26.149 43.2654 23.7547 45.6211 21.2903 46.6464V40.6924C21.5689 40.7914 21.8652 40.8545 22.1774 40.8545C22.8614 40.8545 23.4797 40.5907 23.9516 40.1709ZM31.0484 40.1709C31.5203 40.5916 32.1386 40.8545 32.8226 40.8545C33.1348 40.8545 33.4311 40.7914 33.7097 40.6932V46.6464C31.2444 45.6211 28.8511 43.2654 28.4519 40.7125C28.7118 40.7975 28.985 40.8545 29.2742 40.8545C29.9581 40.8545 30.5765 40.5907 31.0484 40.1709ZM21.2903 48.5192C23.7609 47.698 26.227 45.7332 27.5 43.3197C28.773 45.7332 31.2391 47.6989 33.7097 48.5192V52.2473H21.2903V48.5192ZM35.4839 40.6932C35.7624 40.7914 36.0587 40.8545 36.371 40.8545C36.6832 40.8545 36.9795 40.7914 37.2581 40.6932V52.2473H35.4839V40.6932ZM36.371 39.1018C35.8822 39.1018 35.4839 38.7083 35.4839 38.2254H33.7097C33.7097 38.7083 33.3114 39.1018 32.8226 39.1018C32.3338 39.1018 31.9355 38.7083 31.9355 38.2254H30.1613C30.1613 38.7083 29.763 39.1018 29.2742 39.1018C28.7854 39.1018 28.3871 38.7083 28.3871 38.2254H26.6129C26.6129 38.7083 26.2146 39.1018 25.7258 39.1018C25.237 39.1018 24.8387 38.7083 24.8387 38.2254H23.0645C23.0645 38.7083 22.6662 39.1018 22.1774 39.1018C21.6886 39.1018 21.2903 38.7083 21.2903 38.2254H19.5161C19.5161 38.7083 19.1178 39.1018 18.629 39.1018C18.1402 39.1018 17.7419 38.7083 17.7419 38.2254V36.4727H37.2581V38.2254C37.2581 38.7083 36.8598 39.1018 36.371 39.1018ZM32.8226 31.2144C33.3114 31.2144 33.7097 31.6079 33.7097 32.0908V34.7199H21.2903V32.0908C21.2903 31.6079 21.6886 31.2144 22.1774 31.2144H32.8226ZM35.4839 32.9672H37.2581V34.7199H35.4839V32.9672ZM19.5161 34.7199H17.7419V32.9672H19.5161V34.7199ZM39.0323 32.9672H53.2258V34.7199H39.0323V32.9672ZM40.8064 11.058H42.5806V12.8107H40.8064V11.058ZM38.8016 14.5635H39.9194V31.2144H35.3206C34.9534 30.197 33.9776 29.4617 32.8226 29.4617V23.5357C35.3375 21.4079 37.6315 18.1084 38.8016 14.5635ZM31.0484 24.8135V29.4617H23.9516V24.8135C25.1634 25.5347 26.3778 25.9562 27.5 25.9562C28.6222 25.9562 29.8366 25.5347 31.0484 24.8135ZM22.1774 23.5357V29.4617C21.0224 29.4617 20.0466 30.197 19.6794 31.2144H15.0806V14.5635H16.1984C17.3685 18.1084 19.6625 21.4079 22.1774 23.5357ZM12.4194 11.058H14.1935V12.8107H12.4194V11.058ZM10.4997 14.5635H13.3065V31.2144H6.20968V24.4095C8.04952 21.1757 9.8796 17.4607 10.4997 14.5635ZM4.43548 27.3961V31.2144H1.96048C2.43686 30.5169 3.35589 29.141 4.43548 27.3961ZM50.5645 31.2144V27.3961C51.6441 29.141 52.5631 30.5169 53.0395 31.2144H50.5645Z" fill="#CF0000"/>
</svg>
