<svg width="70" height="43" viewBox="0 0 70 43" fill="none" xmlns="http://www.w3.org/2000/svg">
<path d="M69.9677 30.4009L69.1451 23.5244C69.0566 22.7852 68.3905 22.2533 67.6486 22.3289C64.9295 22.6065 62.4533 20.6284 62.1294 17.92C61.8054 15.2117 63.7453 12.7079 66.4535 12.3388C67.1928 12.238 67.7145 11.5646 67.626 10.8254L66.8035 3.94891C66.6613 2.76092 66.0641 1.69927 65.1219 0.959433C64.1795 0.219737 63.0049 -0.109456 61.8145 0.0321533L13.793 5.75177C12.6145 5.89215 11.5605 6.47809 10.8202 7.40196H4.48875C2.01359 7.40224 0 9.4115 0 11.8812V18.8065C0 19.551 0.598145 20.158 1.34395 20.1707C4.07709 20.2169 6.30068 22.4736 6.30068 25.2012C6.30068 27.9287 4.07709 30.1855 1.34395 30.2319C0.598145 30.2443 0 30.8514 0 31.5957V38.521C0 40.9907 2.01359 43 4.48875 43H43.0068H52.8511C55.3262 43 57.3398 40.9907 57.3398 38.5209V36.4157L66.0427 35.3792C67.2332 35.2374 68.2972 34.6415 69.0386 33.7011C69.7797 32.7608 70.1098 31.5887 69.9677 30.4009ZM54.6055 33.9935V36.7414V38.5209C54.6055 39.4861 53.8185 40.2715 52.8511 40.2715H44.374V37.9601V37.7137C44.374 36.9602 43.7619 36.3494 43.0068 36.3494C42.2517 36.3494 41.6396 36.9602 41.6396 37.7137V38.2857V40.2714H24.9679H14.8497H4.48875C3.52147 40.2714 2.73438 39.4861 2.73438 38.5208V32.8215C4.27041 32.528 5.68121 31.7785 6.80025 30.6444C8.24141 29.184 9.03506 27.2508 9.03506 25.201C9.03506 23.1513 8.24141 21.2181 6.80025 19.7577C5.68107 18.6236 4.27041 17.8741 2.73438 17.5806V11.8812C2.73438 10.916 3.52133 10.1306 4.48875 10.1306H9.83719H12.5738H41.6397V26.7432C41.6397 27.4967 42.2518 28.1074 43.0069 28.1074C43.762 28.1074 44.3741 27.4967 44.3741 26.7432V10.1307H52.8512C53.8185 10.1307 54.6056 10.916 54.6056 11.8813V17.5808C53.0696 17.8742 51.6588 18.6237 50.5396 19.7578C49.0984 21.2183 48.3049 23.1514 48.3049 25.2012C48.3049 27.251 49.0986 29.1841 50.5396 30.6445C51.6588 31.7786 53.0696 32.5282 54.6056 32.8216V33.9935H54.6055ZM66.8895 32.0142C66.5998 32.3816 66.1839 32.6147 65.7187 32.67L57.3398 33.668V31.5957C57.3398 30.8512 56.7417 30.2443 55.9959 30.2316C53.2628 30.1853 51.0392 27.9286 51.0392 25.2009C51.0392 22.4732 53.2628 20.2166 55.9959 20.1704C56.7418 20.1577 57.3398 19.5507 57.3398 18.8063V11.8809C57.3398 9.41109 55.3262 7.40183 52.8511 7.40183H43.0068H23.0092L62.1385 2.74155C62.6035 2.68603 63.0629 2.81481 63.4312 3.1039C63.7995 3.39298 64.0329 3.80798 64.0884 4.27224L64.7654 9.93155C63.2751 10.4047 61.9633 11.3157 60.9867 12.5741C59.7293 14.1947 59.1708 16.2081 59.4143 18.2434C59.6578 20.2787 60.6755 22.1045 62.2798 23.3841C63.5257 24.378 65.0155 24.9552 66.5756 25.065L67.2526 30.7243C67.3081 31.1886 67.1792 31.6467 66.8895 32.0142Z" fill="#CF0000"/>
</svg>
