<svg width="11" height="19" viewBox="0 0 11 19" fill="none" xmlns="http://www.w3.org/2000/svg">
<path d="M3.5 2.5C3.5 1.39543 4.39543 0.5 5.5 0.5C6.60457 0.5 7.5 1.39543 7.5 2.5V9.5C7.5 10.6046 6.60457 11.5 5.5 11.5C4.39543 11.5 3.5 10.6046 3.5 9.5V2.5Z" stroke="white"/>
<path fill-rule="evenodd" clip-rule="evenodd" d="M0.5 7C0.223858 7 0 7.22386 0 7.5V9.5C0 12.5376 2.46243 15 5.5 15C8.53757 15 11 12.5376 11 9.5V7.5C11 7.22386 10.7761 7 10.5 7C10.2239 7 10 7.22386 10 7.5V9.5C10 11.9853 7.98528 14 5.5 14C3.01472 14 1 11.9853 1 9.5V7.5C1 7.22386 0.776142 7 0.5 7Z" fill="white"/>
<rect x="5" y="14" width="1" height="4" fill="white"/>
<rect x="2" y="18" width="7" height="1" rx="0.5" fill="white"/>
</svg>
