<svg width="20" height="20" viewBox="0 0 20 20" fill="none" xmlns="http://www.w3.org/2000/svg">
<g clip-path="url(#clip0)">
<path d="M7.50002 18.3334C7.96026 18.3334 8.33335 17.9603 8.33335 17.5C8.33335 17.0398 7.96026 16.6667 7.50002 16.6667C7.03978 16.6667 6.66669 17.0398 6.66669 17.5C6.66669 17.9603 7.03978 18.3334 7.50002 18.3334Z" stroke="#222222" stroke-width="2" stroke-linecap="round" stroke-linejoin="round"/>
<path d="M16.6666 18.3334C17.1269 18.3334 17.5 17.9603 17.5 17.5C17.5 17.0398 17.1269 16.6667 16.6666 16.6667C16.2064 16.6667 15.8333 17.0398 15.8333 17.5C15.8333 17.9603 16.2064 18.3334 16.6666 18.3334Z" stroke="#222222" stroke-width="2" stroke-linecap="round" stroke-linejoin="round"/>
<path d="M0.833313 0.833313H4.16665L6.39998 11.9916C6.47618 12.3753 6.6849 12.7199 6.9896 12.9652C7.2943 13.2105 7.67556 13.3408 8.06665 13.3333H16.1666C16.5577 13.3408 16.939 13.2105 17.2437 12.9652C17.5484 12.7199 17.7571 12.3753 17.8333 11.9916L19.1666 4.99998H4.99998" stroke="#222222" stroke-width="2" stroke-linecap="round" stroke-linejoin="round"/>
</g>
<defs>
<clipPath id="clip0">
<rect width="20" height="20" fill="white"/>
</clipPath>
</defs>
</svg>
