<svg width="10" height="19" viewBox="0 0 10 19" fill="none" xmlns="http://www.w3.org/2000/svg">
<path d="M9.62343 0.00395327L7.22488 0C4.5302 0 2.78878 1.8353 2.78878 4.67593V6.83184H0.377148C0.168755 6.83184 0 7.00539 0 7.21946V10.3431C0 10.5572 0.168947 10.7306 0.377148 10.7306H2.78878V18.6126C2.78878 18.8267 2.95753 19 3.16593 19H6.31242C6.52081 19 6.68957 18.8265 6.68957 18.6126V10.7306H9.50932C9.71772 10.7306 9.88647 10.5572 9.88647 10.3431L9.88763 7.21946C9.88763 7.11667 9.84779 7.01824 9.77718 6.9455C9.70656 6.87276 9.61034 6.83184 9.51029 6.83184H6.68957V5.00424C6.68957 4.12583 6.89334 3.6799 8.00727 3.6799L9.62304 3.67931C9.83125 3.67931 10 3.50576 10 3.29189V0.391374C10 0.177699 9.83144 0.0043486 9.62343 0.00395327Z" fill="#BDBDBD"/>
</svg>
