<svg width="8" height="5" viewBox="0 0 8 5" fill="none" xmlns="http://www.w3.org/2000/svg">
<path d="M3.36506 4.6967C2.96598 4.2923 2.96598 3.63663 3.36506 3.23223L6.25548 0.303301C6.65456 -0.1011 7.3016 -0.1011 7.70069 0.303301C8.09977 0.707702 8.09977 1.36337 7.70069 1.76777L4.81027 4.6967C4.41118 5.1011 3.76414 5.1011 3.36506 4.6967Z" fill="#CF0000"/>
<path d="M4.63494 4.6967C5.03402 4.2923 5.03402 3.63663 4.63494 3.23223L1.74452 0.303301C1.34544 -0.1011 0.698396 -0.1011 0.299313 0.303301C-0.0997709 0.707702 -0.0997709 1.36337 0.299313 1.76777L3.18973 4.6967C3.58882 5.1011 4.23586 5.1011 4.63494 4.6967Z" fill="#CF0000"/>
</svg>
