<svg width="16" height="14" viewBox="0 0 16 14" fill="none" xmlns="http://www.w3.org/2000/svg">
<rect width="16" height="14" fill="#232323"/>
<rect width="1920" height="5226" transform="translate(-1787 -80)" fill="white"/>
<circle cx="8" cy="10" r="12" fill="#1A81E0"/>
<path d="M12.9455 12.8936C12.9455 13.1397 12.7401 13.3392 12.4869 13.3392H3.4382C3.18496 13.3392 2.97965 13.1397 2.97965 12.8936V11.943C2.97965 11.6969 3.18496 11.4974 3.4382 11.4974H12.4869C12.7401 11.4974 12.9455 11.6969 12.9455 11.943V12.8936ZM16 4.43568C16 3.94922 15.5928 3.55353 15.0922 3.55353C14.5916 3.55353 14.1845 3.94922 14.1845 4.43568C14.1845 4.59413 14.2282 4.74254 14.3038 4.87117L10.2526 6.44588L8.69721 3.42306C9.18541 3.18049 9.52064 2.68701 9.52064 2.11862C9.52064 1.31109 8.84449 0.654175 8.01354 0.654175C7.18259 0.654175 6.50651 1.31115 6.50651 2.11862C6.50651 2.68701 6.84167 3.18043 7.32988 3.42306L5.77454 6.44588L1.70152 4.86273C1.77397 4.73607 1.81555 4.59057 1.81555 4.43568C1.81555 3.94922 1.40836 3.55353 0.907744 3.55353C0.40713 3.55353 0 3.94922 0 4.43568C0 4.7931 0.220226 5.10092 0.535463 5.23935L2.57478 10.1492C2.64479 10.3178 2.81298 10.428 3.00001 10.428H13.0881C13.2768 10.428 13.4462 10.3156 13.515 10.1449L15.4981 5.22354C15.7952 5.07846 16 4.78021 16 4.43568Z" fill="white"/>
</svg>
