<svg width="15" height="16" viewBox="0 0 15 16" fill="none" xmlns="http://www.w3.org/2000/svg">
<path d="M14.7719 14.5735L11.0742 10.6129C12.0249 9.44901 12.5459 7.98455 12.5459 6.45999C12.5459 2.89801 9.73177 0 6.27293 0C2.81409 0 0 2.89801 0 6.45999C0 10.022 2.81409 12.92 6.27293 12.92C7.57143 12.92 8.80883 12.5167 9.86677 11.751L13.5926 15.7416C13.7484 15.9082 13.9578 16 14.1823 16C14.3947 16 14.5963 15.9166 14.7493 15.7649C15.0744 15.4428 15.0848 14.9085 14.7719 14.5735ZM6.27293 1.68522C8.82956 1.68522 10.9094 3.82713 10.9094 6.45999C10.9094 9.09286 8.82956 11.2348 6.27293 11.2348C3.7163 11.2348 1.63642 9.09286 1.63642 6.45999C1.63642 3.82713 3.7163 1.68522 6.27293 1.68522Z" fill="#BDBDBD"/>
</svg>
