<svg width="12" height="11" viewBox="0 0 12 11" fill="none" xmlns="http://www.w3.org/2000/svg">
<path d="M0.714 2.412C0.714 1.992 0.774667 1.63267 0.896 1.334C1.01733 1.03533 1.18533 0.788 1.4 0.591999C1.61467 0.396 1.87133 0.256 2.17 0.172C2.478 0.0786664 2.80933 0.0319998 3.164 0.0319998C3.51867 0.0319998 3.84533 0.0739998 4.144 0.158C4.44267 0.242 4.69933 0.377333 4.914 0.564C5.138 0.750666 5.31067 0.997999 5.432 1.306C5.55333 1.60467 5.61867 1.97333 5.628 2.412C5.61867 2.85067 5.55333 3.224 5.432 3.532C5.31067 3.83067 5.138 4.07333 4.914 4.26C4.69933 4.44667 4.44267 4.582 4.144 4.666C3.84533 4.75 3.51867 4.792 3.164 4.792C2.80933 4.792 2.478 4.75 2.17 4.666C1.87133 4.582 1.61467 4.44667 1.4 4.26C1.18533 4.07333 1.01733 3.83067 0.896 3.532C0.774667 3.224 0.714 2.85067 0.714 2.412ZM2.338 2.412C2.338 3.21467 2.61333 3.616 3.164 3.616C3.45333 3.616 3.65867 3.532 3.78 3.364C3.91067 3.18667 3.98067 2.86933 3.99 2.412C3.98067 1.964 3.91067 1.65133 3.78 1.474C3.65867 1.29667 3.45333 1.208 3.164 1.208C2.87467 1.208 2.66467 1.29667 2.534 1.474C2.40333 1.65133 2.338 1.964 2.338 2.412ZM6.398 7.592C6.398 7.172 6.45867 6.81267 6.58 6.514C6.70133 6.21533 6.86933 5.968 7.084 5.772C7.29867 5.576 7.55533 5.436 7.854 5.352C8.162 5.25867 8.49333 5.212 8.848 5.212C9.20267 5.212 9.52933 5.254 9.828 5.338C10.1267 5.422 10.3833 5.55733 10.598 5.744C10.822 5.93067 10.9947 6.178 11.116 6.486C11.2373 6.78467 11.3027 7.15333 11.312 7.592C11.3027 8.03067 11.2373 8.404 11.116 8.712C10.9947 9.01067 10.822 9.25333 10.598 9.44C10.3833 9.62667 10.1267 9.762 9.828 9.846C9.52933 9.93 9.20267 9.972 8.848 9.972C8.49333 9.972 8.162 9.93 7.854 9.846C7.55533 9.762 7.29867 9.62667 7.084 9.44C6.86933 9.25333 6.70133 9.01067 6.58 8.712C6.45867 8.404 6.398 8.03067 6.398 7.592ZM8.022 7.592C8.022 8.39467 8.29733 8.796 8.848 8.796C9.13733 8.796 9.34267 8.712 9.464 8.544C9.59467 8.36667 9.66467 8.04933 9.674 7.592C9.66467 7.144 9.59467 6.83133 9.464 6.654C9.34267 6.47667 9.13733 6.388 8.848 6.388C8.55867 6.388 8.34867 6.47667 8.218 6.654C8.08733 6.83133 8.022 7.144 8.022 7.592ZM9.478 0.00399935L10.5 0.928L2.436 10.196L1.414 9.23L9.478 0.00399935Z" fill="white"/>
</svg>
