<svg width="11" height="13" viewBox="0 0 11 13" fill="none" xmlns="http://www.w3.org/2000/svg">
<path fill-rule="evenodd" clip-rule="evenodd" d="M0 0H8C8.82523 0 9.56676 0.402547 10.0821 0.917893C10.5975 1.43324 11 2.17477 11 3V4C11 4.82523 10.5975 5.56676 10.0821 6.08211C9.56676 6.59745 8.82523 7 8 7H4V9H9V11H4V13H2V11H0V9H2V7H0V5H1.99997L2 2H0V0ZM8 2H4V5H8C8.17477 5 8.43324 4.90255 8.66789 4.66789C8.90255 4.43324 9 4.17477 9 4V3C9 2.82523 8.90255 2.56676 8.66789 2.33211C8.43324 2.09745 8.17477 2 8 2Z" fill="white"/>
</svg>
