<svg width="20" height="20" viewBox="0 0 20 20" fill="none" xmlns="http://www.w3.org/2000/svg">
<path d="M18.8812 17.7023L14.1937 13.0148C15.2187 11.7314 15.8333 10.1041 15.8333 8.33331C15.8333 4.19165 12.475 0.833313 8.33331 0.833313C4.19165 0.833313 0.833313 4.19165 0.833313 8.33331C0.833313 12.475 4.19165 15.8333 8.33331 15.8333C10.1041 15.8333 11.7314 15.2187 13.0148 14.1937L17.7023 18.8812C17.8646 19.0437 18.0798 19.125 18.2916 19.125C18.5044 19.125 18.7187 19.0437 18.8812 18.8812C19.206 18.5562 19.206 18.0269 18.8812 17.7023ZM8.33331 14.1666C5.11165 14.1666 2.49998 11.555 2.49998 8.33331C2.49998 5.11165 5.11165 2.49998 8.33331 2.49998C11.555 2.49998 14.1666 5.11165 14.1666 8.33331C14.1666 11.555 11.555 14.1666 8.33331 14.1666Z" fill="#222222"/>
</svg>
