<svg width="14" height="14" viewBox="0 0 14 14" fill="none" xmlns="http://www.w3.org/2000/svg">
<path d="M13.6962 6.5891C13.9717 6.32813 14.069 5.94512 13.9502 5.58908C13.831 5.23304 13.5207 4.97888 13.1394 4.92495L9.74965 4.44632C9.60528 4.42589 9.48053 4.3379 9.41605 4.21069L7.90057 1.22616C7.73041 0.890828 7.38504 0.682434 7.00014 0.682434C6.61552 0.682434 6.27015 0.890828 6.09999 1.22616L4.58423 4.21096C4.51975 4.33818 4.39472 4.42616 4.25035 4.4466L0.860564 4.92522C0.479592 4.97888 0.168983 5.23332 0.0498411 5.58935C-0.0690201 5.94539 0.0282555 6.3284 0.303823 6.58937L2.75646 8.91249C2.86102 9.01164 2.90896 9.15439 2.88429 9.29386L2.30568 12.5742C2.25438 12.863 2.33231 13.1438 2.52462 13.3653C2.82346 13.7104 3.34516 13.8156 3.76229 13.6026L6.79381 12.0536C6.92052 11.9891 7.08003 11.9896 7.20646 12.0536L10.2383 13.6026C10.3857 13.678 10.543 13.7162 10.7053 13.7162C11.0016 13.7162 11.2825 13.5881 11.4757 13.3653C11.6682 13.1438 11.7459 12.8624 11.6946 12.5742L11.1157 9.29386C11.091 9.15411 11.139 9.01164 11.2435 8.91249L13.6962 6.5891Z" fill="white"/>
</svg>
