<svg width="14" height="20" viewBox="0 0 14 20" fill="none" xmlns="http://www.w3.org/2000/svg">
<path fill-rule="evenodd" clip-rule="evenodd" d="M13.5 0C13.7761 0 14 0.223862 14 0.5C14 0.776138 13.7761 1 13.5 1H2.5C1.67163 1 1 1.67157 1 2.5C1 3.32843 1.67163 4 2.5 4H13C13.5522 4 14 4.44771 14 5V18C14 19.1046 13.1045 20 12 20H2C1 20 0 19 0 18V2H0.0500488C0.281738 0.858887 1.29053 0 2.5 0H13.5ZM1 4.50018V18C1 18.5 1.5 19 2 19H12C12.5522 19 13 18.5523 13 18V5H2.5C1.93726 5 1.41772 4.81403 1 4.50018Z" fill="#9B1515"/>
<path d="M2.5 2C2.22388 2 2 2.22386 2 2.5C2 2.77614 2.22388 3 2.5 3H13.5C13.7761 3 14 2.77614 14 2.5C14 2.22386 13.7761 2 13.5 2H2.5Z" fill="#9B1515"/>
</svg>
