<svg width="24" height="14" viewBox="0 0 24 14" fill="none" xmlns="http://www.w3.org/2000/svg">
<path d="M23.8728 12.5202C23.8437 12.4575 23.8166 12.4056 23.7915 12.364C23.3751 11.614 22.5793 10.6935 21.4047 9.60218L21.3799 9.57718L21.3675 9.56493L21.3549 9.55237H21.3423C20.8093 9.04419 20.4717 8.7025 20.3303 8.52756C20.0716 8.19432 20.0137 7.85701 20.1551 7.51523C20.2549 7.25701 20.6301 6.71167 21.2797 5.87848C21.6214 5.43691 21.892 5.08301 22.0918 4.81638C23.5331 2.90026 24.158 1.67583 23.9663 1.14262L23.8919 1.01802C23.8418 0.942999 23.7127 0.874372 23.5047 0.811786C23.2962 0.74933 23.0297 0.739001 22.7047 0.780624L19.106 0.805483C19.0477 0.784825 18.9645 0.786751 18.856 0.811786C18.7477 0.83682 18.6935 0.849382 18.6935 0.849382L18.6309 0.880675L18.5812 0.918271C18.5395 0.94313 18.4937 0.986854 18.4436 1.04935C18.3939 1.11163 18.3523 1.18472 18.319 1.26801C17.9272 2.27601 17.4817 3.2132 16.9818 4.07952C16.6735 4.5961 16.3904 5.04379 16.1319 5.42286C15.8737 5.8018 15.6571 6.08099 15.4823 6.25995C15.3073 6.43909 15.1493 6.5826 15.0074 6.69101C14.8657 6.79947 14.7575 6.84529 14.6827 6.82853C14.6076 6.81176 14.5369 6.79513 14.47 6.7785C14.3534 6.70348 14.2597 6.60146 14.189 6.47235C14.118 6.34324 14.0702 6.18073 14.0452 5.98496C14.0204 5.78906 14.0057 5.62056 14.0015 5.47888C13.9976 5.33738 13.9994 5.13724 14.0078 4.87901C14.0165 4.62066 14.0204 4.44585 14.0204 4.3542C14.0204 4.03759 14.0265 3.69398 14.0389 3.32327C14.0515 2.95256 14.0617 2.65884 14.0703 2.44246C14.0788 2.22585 14.0827 1.99669 14.0827 1.7551C14.0827 1.5135 14.068 1.32403 14.0389 1.18652C14.0102 1.04918 13.9661 0.915864 13.9081 0.78662C13.8496 0.657507 13.7641 0.557631 13.6519 0.486728C13.5395 0.415913 13.3997 0.359716 13.2333 0.317962C12.7917 0.218042 12.2295 0.16399 11.5462 0.155587C9.99683 0.138955 9.00126 0.239006 8.55974 0.455609C8.3848 0.547126 8.22649 0.672168 8.08495 0.830343C7.93496 1.01368 7.91404 1.11373 8.02232 1.13019C8.52223 1.20508 8.87613 1.38421 9.08442 1.66743L9.15948 1.81751C9.21786 1.92579 9.27616 2.11749 9.3345 2.39234C9.39275 2.6672 9.43035 2.97125 9.44689 3.30432C9.48847 3.91255 9.48847 4.4332 9.44689 4.86632C9.40518 5.29961 9.36579 5.63693 9.3282 5.87852C9.2906 6.12011 9.23441 6.31588 9.15948 6.46579C9.08442 6.61573 9.03448 6.70738 9.00944 6.74064C8.98445 6.77391 8.96362 6.79487 8.94708 6.8031C8.8388 6.84459 8.72618 6.86573 8.60963 6.86573C8.4929 6.86573 8.35136 6.80734 8.18478 6.69066C8.01825 6.57398 7.84542 6.4137 7.66628 6.20957C7.48714 6.0054 7.28511 5.72008 7.0601 5.35358C6.83527 4.98707 6.60199 4.55391 6.3604 4.05409L6.16052 3.69161C6.03556 3.45842 5.86487 3.11888 5.64827 2.67328C5.43153 2.22752 5.23996 1.79632 5.07343 1.37979C5.00686 1.20486 4.90685 1.07167 4.77358 0.980026L4.71104 0.94243C4.66946 0.909167 4.60272 0.873847 4.51116 0.836207C4.41946 0.798612 4.32379 0.771651 4.22374 0.755063L0.799886 0.779923C0.450013 0.779923 0.21262 0.859185 0.0876216 1.01749L0.0375959 1.09238C0.0126049 1.13409 0 1.2007 0 1.29239C0 1.38404 0.024991 1.49652 0.0750167 1.6297C0.574836 2.80441 1.11838 3.93732 1.70564 5.02861C2.29291 6.11989 2.80323 6.99896 3.23631 7.665C3.66947 8.33153 4.11099 8.96059 4.56087 9.55189C5.01076 10.1434 5.30855 10.5225 5.45425 10.689C5.60012 10.8558 5.7147 10.9806 5.79799 11.0639L6.11045 11.3637C6.31037 11.5637 6.60396 11.8032 6.99135 12.0822C7.37882 12.3614 7.80778 12.6362 8.27845 12.9072C8.7492 13.1777 9.29686 13.3985 9.92172 13.5692C10.5465 13.7401 11.1546 13.8087 11.7461 13.7756H13.1832C13.4746 13.7505 13.6954 13.6588 13.8455 13.5006L13.8952 13.438C13.9286 13.3883 13.9599 13.311 13.9888 13.2071C14.0181 13.103 14.0326 12.9883 14.0326 12.8635C14.0241 12.5053 14.0513 12.1825 14.1136 11.8952C14.1759 11.6079 14.2469 11.3913 14.3263 11.2454C14.4057 11.0997 14.4952 10.9767 14.5949 10.877C14.6947 10.7771 14.7659 10.7165 14.8077 10.6957C14.8491 10.6747 14.8823 10.6605 14.9073 10.652C15.1072 10.5854 15.3425 10.6499 15.6135 10.8458C15.8843 11.0416 16.1383 11.2833 16.3758 11.5706C16.6133 11.8581 16.8985 12.1808 17.2317 12.5389C17.5651 12.8972 17.8566 13.1635 18.1064 13.3387L18.3562 13.4886C18.523 13.5887 18.7396 13.6803 19.0063 13.7636C19.2724 13.8469 19.5056 13.8677 19.7058 13.8261L22.9046 13.7762C23.221 13.7762 23.4672 13.7238 23.6419 13.6199C23.8168 13.5157 23.9208 13.401 23.9543 13.2762C23.9877 13.1513 23.9895 13.0096 23.9607 12.8512C23.931 12.6931 23.9018 12.5826 23.8728 12.5202Z" fill="#9B1515"/>
</svg>
